<mxfile host="app.diagrams.net" modified="2022-09-01T16:59:31.686Z" agent="5.0 (Macintosh; Intel Mac OS X 10_15_7) AppleWebKit/537.36 (KHTML, like Gecko) Chrome/104.0.0.0 Safari/537.36" etag="QrwuYZckyCETvZmY3PQD" version="20.2.7" type="github">
  <diagram id="RMdtWBDBzw_GRddQN0wl" name="หน้า-1">
    <mxGraphModel dx="860" dy="506" grid="1" gridSize="10" guides="1" tooltips="1" connect="1" arrows="1" fold="1" page="1" pageScale="1" pageWidth="827" pageHeight="1169" math="0" shadow="0">
      <root>
        <mxCell id="0" />
        <mxCell id="1" parent="0" />
        <mxCell id="8MiHfRahlYDLlmmxbXPG-1" value="" style="group" vertex="1" connectable="0" parent="1">
          <mxGeometry x="40" y="50" width="730" height="1606" as="geometry" />
        </mxCell>
        <mxCell id="RDVR8g_Y1KUdD5dzRXbu-121" style="edgeStyle=orthogonalEdgeStyle;rounded=0;orthogonalLoop=1;jettySize=auto;html=1;endArrow=classic;endFill=1;" parent="8MiHfRahlYDLlmmxbXPG-1" source="RDVR8g_Y1KUdD5dzRXbu-102" edge="1">
          <mxGeometry relative="1" as="geometry">
            <mxPoint x="411.25" y="1105.9999999999998" as="targetPoint" />
          </mxGeometry>
        </mxCell>
        <mxCell id="RDVR8g_Y1KUdD5dzRXbu-102" value="ซ้ำซ้อน" style="rhombus;whiteSpace=wrap;html=1;rounded=1;" parent="8MiHfRahlYDLlmmxbXPG-1" vertex="1">
          <mxGeometry x="371.25" y="976" width="80" height="80" as="geometry" />
        </mxCell>
        <mxCell id="RDVR8g_Y1KUdD5dzRXbu-103" value="ใช่" style="text;html=1;align=center;verticalAlign=middle;resizable=0;points=[];autosize=1;strokeColor=none;fillColor=none;" parent="8MiHfRahlYDLlmmxbXPG-1" vertex="1">
          <mxGeometry x="440" y="976" width="40" height="30" as="geometry" />
        </mxCell>
        <mxCell id="RDVR8g_Y1KUdD5dzRXbu-107" value="ไม่" style="text;html=1;align=center;verticalAlign=middle;resizable=0;points=[];autosize=1;strokeColor=none;fillColor=none;" parent="8MiHfRahlYDLlmmxbXPG-1" vertex="1">
          <mxGeometry x="364" y="1056" width="40" height="30" as="geometry" />
        </mxCell>
        <mxCell id="RDVR8g_Y1KUdD5dzRXbu-117" style="edgeStyle=orthogonalEdgeStyle;rounded=0;orthogonalLoop=1;jettySize=auto;html=1;endArrow=none;endFill=0;" parent="8MiHfRahlYDLlmmxbXPG-1" source="RDVR8g_Y1KUdD5dzRXbu-111" edge="1">
          <mxGeometry relative="1" as="geometry">
            <mxPoint x="730" y="656" as="targetPoint" />
          </mxGeometry>
        </mxCell>
        <mxCell id="RDVR8g_Y1KUdD5dzRXbu-119" style="edgeStyle=orthogonalEdgeStyle;rounded=0;orthogonalLoop=1;jettySize=auto;html=1;endArrow=none;endFill=0;" parent="8MiHfRahlYDLlmmxbXPG-1" source="RDVR8g_Y1KUdD5dzRXbu-113" edge="1">
          <mxGeometry relative="1" as="geometry">
            <mxPoint x="730" y="720" as="targetPoint" />
          </mxGeometry>
        </mxCell>
        <mxCell id="RDVR8g_Y1KUdD5dzRXbu-120" style="edgeStyle=orthogonalEdgeStyle;rounded=0;orthogonalLoop=1;jettySize=auto;html=1;exitX=0.5;exitY=1;exitDx=0;exitDy=0;endArrow=none;endFill=0;" parent="8MiHfRahlYDLlmmxbXPG-1" source="RDVR8g_Y1KUdD5dzRXbu-47" edge="1">
          <mxGeometry relative="1" as="geometry">
            <mxPoint x="280" y="466" as="targetPoint" />
          </mxGeometry>
        </mxCell>
        <mxCell id="RDVR8g_Y1KUdD5dzRXbu-123" value="เพิ่มข้อมูลผู้ถือหุ้น โดยนำข้อมูลใน table Request Temp ที่ตรงกับ verifyToken เพิ่มลงใน Table Request&amp;nbsp;" style="rounded=1;whiteSpace=wrap;html=1;" parent="8MiHfRahlYDLlmmxbXPG-1" vertex="1">
          <mxGeometry x="336.75" y="1106" width="149" height="60" as="geometry" />
        </mxCell>
        <mxCell id="RDVR8g_Y1KUdD5dzRXbu-124" value="บันทึกข้อมูล" style="whiteSpace=wrap;html=1;rounded=1;" parent="8MiHfRahlYDLlmmxbXPG-1" vertex="1">
          <mxGeometry x="351.25" y="1406" width="120" height="60" as="geometry" />
        </mxCell>
        <mxCell id="RDVR8g_Y1KUdD5dzRXbu-126" value="สำเร็จ" style="rhombus;whiteSpace=wrap;html=1;rounded=1;" parent="8MiHfRahlYDLlmmxbXPG-1" vertex="1">
          <mxGeometry x="371.25" y="1489" width="80" height="80" as="geometry" />
        </mxCell>
        <mxCell id="RDVR8g_Y1KUdD5dzRXbu-127" value="" style="edgeStyle=orthogonalEdgeStyle;rounded=0;orthogonalLoop=1;jettySize=auto;html=1;endArrow=classic;endFill=1;" parent="8MiHfRahlYDLlmmxbXPG-1" source="RDVR8g_Y1KUdD5dzRXbu-124" target="RDVR8g_Y1KUdD5dzRXbu-126" edge="1">
          <mxGeometry relative="1" as="geometry" />
        </mxCell>
        <mxCell id="RDVR8g_Y1KUdD5dzRXbu-14" value="ค้นหาข้อมูลใน Table Request Temp ที่ verifyToken ตรงกัน" style="rounded=1;whiteSpace=wrap;html=1;" parent="8MiHfRahlYDLlmmxbXPG-1" vertex="1">
          <mxGeometry x="130" y="105" width="120" height="60" as="geometry" />
        </mxCell>
        <mxCell id="RDVR8g_Y1KUdD5dzRXbu-20" value="มีข้อมูล" style="rhombus;whiteSpace=wrap;html=1;rounded=1;" parent="8MiHfRahlYDLlmmxbXPG-1" vertex="1">
          <mxGeometry x="150" y="205" width="80" height="80" as="geometry" />
        </mxCell>
        <mxCell id="RDVR8g_Y1KUdD5dzRXbu-21" value="" style="edgeStyle=orthogonalEdgeStyle;rounded=0;orthogonalLoop=1;jettySize=auto;html=1;" parent="8MiHfRahlYDLlmmxbXPG-1" source="RDVR8g_Y1KUdD5dzRXbu-14" target="RDVR8g_Y1KUdD5dzRXbu-20" edge="1">
          <mxGeometry relative="1" as="geometry" />
        </mxCell>
        <mxCell id="RDVR8g_Y1KUdD5dzRXbu-23" value="ส่ง Error Code 3&amp;nbsp;&amp;nbsp;&lt;br&gt;รหัสยืนยันตัวตนไม่ถูกต้อง" style="whiteSpace=wrap;html=1;rounded=1;" parent="8MiHfRahlYDLlmmxbXPG-1" vertex="1">
          <mxGeometry x="320" y="227.5" width="160" height="35" as="geometry" />
        </mxCell>
        <mxCell id="RDVR8g_Y1KUdD5dzRXbu-24" value="" style="edgeStyle=orthogonalEdgeStyle;rounded=0;orthogonalLoop=1;jettySize=auto;html=1;" parent="8MiHfRahlYDLlmmxbXPG-1" source="RDVR8g_Y1KUdD5dzRXbu-20" target="RDVR8g_Y1KUdD5dzRXbu-23" edge="1">
          <mxGeometry relative="1" as="geometry" />
        </mxCell>
        <mxCell id="RDVR8g_Y1KUdD5dzRXbu-25" value="ตรวจสอบไฟลแนบ" style="whiteSpace=wrap;html=1;rounded=1;" parent="8MiHfRahlYDLlmmxbXPG-1" vertex="1">
          <mxGeometry x="130" y="325" width="120" height="60" as="geometry" />
        </mxCell>
        <mxCell id="RDVR8g_Y1KUdD5dzRXbu-26" value="" style="edgeStyle=orthogonalEdgeStyle;rounded=0;orthogonalLoop=1;jettySize=auto;html=1;" parent="8MiHfRahlYDLlmmxbXPG-1" source="RDVR8g_Y1KUdD5dzRXbu-20" target="RDVR8g_Y1KUdD5dzRXbu-25" edge="1">
          <mxGeometry relative="1" as="geometry" />
        </mxCell>
        <mxCell id="RDVR8g_Y1KUdD5dzRXbu-27" value="ใช่" style="text;html=1;align=center;verticalAlign=middle;resizable=0;points=[];autosize=1;strokeColor=none;fillColor=none;" parent="8MiHfRahlYDLlmmxbXPG-1" vertex="1">
          <mxGeometry x="150" y="280" width="40" height="30" as="geometry" />
        </mxCell>
        <mxCell id="RDVR8g_Y1KUdD5dzRXbu-28" value="ไม่ใช่" style="text;html=1;align=center;verticalAlign=middle;resizable=0;points=[];autosize=1;strokeColor=none;fillColor=none;" parent="8MiHfRahlYDLlmmxbXPG-1" vertex="1">
          <mxGeometry x="215" y="210" width="50" height="30" as="geometry" />
        </mxCell>
        <mxCell id="RDVR8g_Y1KUdD5dzRXbu-33" style="edgeStyle=orthogonalEdgeStyle;rounded=0;orthogonalLoop=1;jettySize=auto;html=1;entryX=0;entryY=0.5;entryDx=0;entryDy=0;" parent="8MiHfRahlYDLlmmxbXPG-1" source="RDVR8g_Y1KUdD5dzRXbu-29" edge="1">
          <mxGeometry relative="1" as="geometry">
            <mxPoint x="320" y="465" as="targetPoint" />
          </mxGeometry>
        </mxCell>
        <mxCell id="RDVR8g_Y1KUdD5dzRXbu-29" value="มีข้อมูล" style="rhombus;whiteSpace=wrap;html=1;rounded=1;" parent="8MiHfRahlYDLlmmxbXPG-1" vertex="1">
          <mxGeometry x="150" y="425" width="80" height="80" as="geometry" />
        </mxCell>
        <mxCell id="RDVR8g_Y1KUdD5dzRXbu-30" value="" style="edgeStyle=orthogonalEdgeStyle;rounded=0;orthogonalLoop=1;jettySize=auto;html=1;" parent="8MiHfRahlYDLlmmxbXPG-1" source="RDVR8g_Y1KUdD5dzRXbu-25" target="RDVR8g_Y1KUdD5dzRXbu-29" edge="1">
          <mxGeometry relative="1" as="geometry" />
        </mxCell>
        <mxCell id="RDVR8g_Y1KUdD5dzRXbu-36" value="ไม่ใช่" style="text;html=1;align=center;verticalAlign=middle;resizable=0;points=[];autosize=1;strokeColor=none;fillColor=none;" parent="8MiHfRahlYDLlmmxbXPG-1" vertex="1">
          <mxGeometry x="215" y="425" width="50" height="30" as="geometry" />
        </mxCell>
        <mxCell id="RDVR8g_Y1KUdD5dzRXbu-37" value="ใช่" style="text;html=1;align=center;verticalAlign=middle;resizable=0;points=[];autosize=1;strokeColor=none;fillColor=none;" parent="8MiHfRahlYDLlmmxbXPG-1" vertex="1">
          <mxGeometry x="140" y="490" width="40" height="30" as="geometry" />
        </mxCell>
        <mxCell id="RDVR8g_Y1KUdD5dzRXbu-38" value="อัปโหลดไฟลแนบ" style="whiteSpace=wrap;html=1;rounded=1;" parent="8MiHfRahlYDLlmmxbXPG-1" vertex="1">
          <mxGeometry x="130" y="545" width="120" height="60" as="geometry" />
        </mxCell>
        <mxCell id="RDVR8g_Y1KUdD5dzRXbu-39" value="" style="edgeStyle=orthogonalEdgeStyle;rounded=0;orthogonalLoop=1;jettySize=auto;html=1;" parent="8MiHfRahlYDLlmmxbXPG-1" source="RDVR8g_Y1KUdD5dzRXbu-29" target="RDVR8g_Y1KUdD5dzRXbu-38" edge="1">
          <mxGeometry relative="1" as="geometry" />
        </mxCell>
        <mxCell id="RDVR8g_Y1KUdD5dzRXbu-42" value="สำเร็จ" style="rhombus;whiteSpace=wrap;html=1;rounded=1;" parent="8MiHfRahlYDLlmmxbXPG-1" vertex="1">
          <mxGeometry x="150" y="645" width="80" height="80" as="geometry" />
        </mxCell>
        <mxCell id="RDVR8g_Y1KUdD5dzRXbu-43" value="" style="edgeStyle=orthogonalEdgeStyle;rounded=0;orthogonalLoop=1;jettySize=auto;html=1;" parent="8MiHfRahlYDLlmmxbXPG-1" source="RDVR8g_Y1KUdD5dzRXbu-38" target="RDVR8g_Y1KUdD5dzRXbu-42" edge="1">
          <mxGeometry relative="1" as="geometry" />
        </mxCell>
        <mxCell id="RDVR8g_Y1KUdD5dzRXbu-45" value="ตรวจสอบว่ามีไฟลอีกหรือไม่" style="whiteSpace=wrap;html=1;rounded=1;" parent="8MiHfRahlYDLlmmxbXPG-1" vertex="1">
          <mxGeometry x="130" y="755" width="120" height="60" as="geometry" />
        </mxCell>
        <mxCell id="RDVR8g_Y1KUdD5dzRXbu-46" value="" style="edgeStyle=orthogonalEdgeStyle;rounded=0;orthogonalLoop=1;jettySize=auto;html=1;" parent="8MiHfRahlYDLlmmxbXPG-1" source="RDVR8g_Y1KUdD5dzRXbu-42" target="RDVR8g_Y1KUdD5dzRXbu-45" edge="1">
          <mxGeometry relative="1" as="geometry" />
        </mxCell>
        <mxCell id="RDVR8g_Y1KUdD5dzRXbu-51" style="edgeStyle=orthogonalEdgeStyle;rounded=0;orthogonalLoop=1;jettySize=auto;html=1;endArrow=classic;endFill=1;entryX=1;entryY=0.5;entryDx=0;entryDy=0;" parent="8MiHfRahlYDLlmmxbXPG-1" source="RDVR8g_Y1KUdD5dzRXbu-47" target="RDVR8g_Y1KUdD5dzRXbu-38" edge="1">
          <mxGeometry relative="1" as="geometry">
            <mxPoint x="275" y="466" as="targetPoint" />
            <Array as="points">
              <mxPoint x="260" y="885" />
              <mxPoint x="260" y="575" />
            </Array>
          </mxGeometry>
        </mxCell>
        <mxCell id="RDVR8g_Y1KUdD5dzRXbu-47" value="มีช้อมูล" style="rhombus;whiteSpace=wrap;html=1;rounded=1;" parent="8MiHfRahlYDLlmmxbXPG-1" vertex="1">
          <mxGeometry x="150" y="845" width="80" height="80" as="geometry" />
        </mxCell>
        <mxCell id="RDVR8g_Y1KUdD5dzRXbu-48" value="" style="edgeStyle=orthogonalEdgeStyle;rounded=0;orthogonalLoop=1;jettySize=auto;html=1;" parent="8MiHfRahlYDLlmmxbXPG-1" source="RDVR8g_Y1KUdD5dzRXbu-45" target="RDVR8g_Y1KUdD5dzRXbu-47" edge="1">
          <mxGeometry relative="1" as="geometry" />
        </mxCell>
        <mxCell id="RDVR8g_Y1KUdD5dzRXbu-52" value="ไม่ใช่" style="text;html=1;align=center;verticalAlign=middle;resizable=0;points=[];autosize=1;strokeColor=none;fillColor=none;" parent="8MiHfRahlYDLlmmxbXPG-1" vertex="1">
          <mxGeometry x="190" y="915" width="50" height="30" as="geometry" />
        </mxCell>
        <mxCell id="RDVR8g_Y1KUdD5dzRXbu-54" value="ตรวจสอบเวลาการเปิดรับเอกสาร&amp;nbsp;" style="rounded=1;whiteSpace=wrap;html=1;" parent="8MiHfRahlYDLlmmxbXPG-1" vertex="1">
          <mxGeometry x="320" y="435" width="120" height="60" as="geometry" />
        </mxCell>
        <mxCell id="RDVR8g_Y1KUdD5dzRXbu-55" value="เปิดรับเอกสาร" style="rhombus;whiteSpace=wrap;html=1;rounded=1;" parent="8MiHfRahlYDLlmmxbXPG-1" vertex="1">
          <mxGeometry x="480" y="425" width="80" height="80" as="geometry" />
        </mxCell>
        <mxCell id="RDVR8g_Y1KUdD5dzRXbu-56" value="" style="edgeStyle=orthogonalEdgeStyle;rounded=0;orthogonalLoop=1;jettySize=auto;html=1;" parent="8MiHfRahlYDLlmmxbXPG-1" source="RDVR8g_Y1KUdD5dzRXbu-54" target="RDVR8g_Y1KUdD5dzRXbu-55" edge="1">
          <mxGeometry relative="1" as="geometry" />
        </mxCell>
        <mxCell id="RDVR8g_Y1KUdD5dzRXbu-139" style="edgeStyle=orthogonalEdgeStyle;rounded=0;orthogonalLoop=1;jettySize=auto;html=1;endArrow=none;endFill=0;" parent="8MiHfRahlYDLlmmxbXPG-1" source="RDVR8g_Y1KUdD5dzRXbu-57" edge="1">
          <mxGeometry relative="1" as="geometry">
            <mxPoint x="730" y="886" as="targetPoint" />
            <Array as="points">
              <mxPoint x="60" y="1606" />
              <mxPoint x="730" y="1606" />
            </Array>
          </mxGeometry>
        </mxCell>
        <mxCell id="RDVR8g_Y1KUdD5dzRXbu-57" value="ส่ง Error Code 1&amp;nbsp;&amp;nbsp;&lt;br&gt;ไม่สามารถอัพโหลดเอกสารแนบได้" style="rounded=1;whiteSpace=wrap;html=1;" parent="8MiHfRahlYDLlmmxbXPG-1" vertex="1">
          <mxGeometry y="655" width="120" height="60" as="geometry" />
        </mxCell>
        <mxCell id="RDVR8g_Y1KUdD5dzRXbu-44" style="edgeStyle=orthogonalEdgeStyle;rounded=0;orthogonalLoop=1;jettySize=auto;html=1;" parent="8MiHfRahlYDLlmmxbXPG-1" source="RDVR8g_Y1KUdD5dzRXbu-42" target="RDVR8g_Y1KUdD5dzRXbu-57" edge="1">
          <mxGeometry relative="1" as="geometry">
            <mxPoint x="280" y="685" as="targetPoint" />
          </mxGeometry>
        </mxCell>
        <mxCell id="RDVR8g_Y1KUdD5dzRXbu-58" value="ใช่" style="text;html=1;align=center;verticalAlign=middle;resizable=0;points=[];autosize=1;strokeColor=none;fillColor=none;" parent="8MiHfRahlYDLlmmxbXPG-1" vertex="1">
          <mxGeometry x="215" y="845" width="40" height="30" as="geometry" />
        </mxCell>
        <mxCell id="RDVR8g_Y1KUdD5dzRXbu-59" value="" style="ellipse;whiteSpace=wrap;html=1;aspect=fixed;" parent="8MiHfRahlYDLlmmxbXPG-1" vertex="1">
          <mxGeometry x="575" y="105" width="25" height="25" as="geometry" />
        </mxCell>
        <mxCell id="RDVR8g_Y1KUdD5dzRXbu-32" style="edgeStyle=orthogonalEdgeStyle;rounded=0;orthogonalLoop=1;jettySize=auto;html=1;endArrow=classic;endFill=1;entryX=-0.013;entryY=0.391;entryDx=0;entryDy=0;entryPerimeter=0;" parent="8MiHfRahlYDLlmmxbXPG-1" source="RDVR8g_Y1KUdD5dzRXbu-23" edge="1" target="RDVR8g_Y1KUdD5dzRXbu-59">
          <mxGeometry relative="1" as="geometry">
            <mxPoint x="530" y="15" as="targetPoint" />
          </mxGeometry>
        </mxCell>
        <mxCell id="RDVR8g_Y1KUdD5dzRXbu-76" style="edgeStyle=orthogonalEdgeStyle;rounded=0;orthogonalLoop=1;jettySize=auto;html=1;entryX=0.5;entryY=1;entryDx=0;entryDy=0;endArrow=classic;endFill=1;" parent="8MiHfRahlYDLlmmxbXPG-1" source="RDVR8g_Y1KUdD5dzRXbu-62" target="RDVR8g_Y1KUdD5dzRXbu-59" edge="1">
          <mxGeometry relative="1" as="geometry">
            <Array as="points">
              <mxPoint x="520" y="276" />
              <mxPoint x="570" y="276" />
              <mxPoint x="570" y="160" />
              <mxPoint x="588" y="160" />
            </Array>
          </mxGeometry>
        </mxCell>
        <mxCell id="RDVR8g_Y1KUdD5dzRXbu-62" value="ส่ง Error Code&amp;nbsp; 4&amp;nbsp;&lt;br&gt;การยื่นเอกสารคำร้อง&lt;br&gt;ยังไม่เปิด/ปิดอยู่" style="whiteSpace=wrap;html=1;rounded=1;" parent="8MiHfRahlYDLlmmxbXPG-1" vertex="1">
          <mxGeometry x="440" y="310" width="160" height="50" as="geometry" />
        </mxCell>
        <mxCell id="RDVR8g_Y1KUdD5dzRXbu-61" style="edgeStyle=orthogonalEdgeStyle;rounded=0;orthogonalLoop=1;jettySize=auto;html=1;entryX=0.5;entryY=1;entryDx=0;entryDy=0;" parent="8MiHfRahlYDLlmmxbXPG-1" source="RDVR8g_Y1KUdD5dzRXbu-55" target="RDVR8g_Y1KUdD5dzRXbu-62" edge="1">
          <mxGeometry relative="1" as="geometry">
            <mxPoint x="520" y="385" as="targetPoint" />
          </mxGeometry>
        </mxCell>
        <mxCell id="RDVR8g_Y1KUdD5dzRXbu-64" value="ไม่ใช่" style="text;html=1;align=center;verticalAlign=middle;resizable=0;points=[];autosize=1;strokeColor=none;fillColor=none;" parent="8MiHfRahlYDLlmmxbXPG-1" vertex="1">
          <mxGeometry x="520" y="395" width="50" height="30" as="geometry" />
        </mxCell>
        <mxCell id="RDVR8g_Y1KUdD5dzRXbu-65" value="ใช่" style="text;html=1;align=center;verticalAlign=middle;resizable=0;points=[];autosize=1;strokeColor=none;fillColor=none;" parent="8MiHfRahlYDLlmmxbXPG-1" vertex="1">
          <mxGeometry x="530" y="490" width="40" height="30" as="geometry" />
        </mxCell>
        <mxCell id="RDVR8g_Y1KUdD5dzRXbu-68" value="สิ้นสุด" style="ellipse;whiteSpace=wrap;html=1;" parent="8MiHfRahlYDLlmmxbXPG-1" vertex="1">
          <mxGeometry x="647.5" y="100" width="60" height="35" as="geometry" />
        </mxCell>
        <mxCell id="RDVR8g_Y1KUdD5dzRXbu-70" value="" style="edgeStyle=orthogonalEdgeStyle;rounded=0;orthogonalLoop=1;jettySize=auto;html=1;endArrow=classic;endFill=1;" parent="8MiHfRahlYDLlmmxbXPG-1" source="RDVR8g_Y1KUdD5dzRXbu-59" target="RDVR8g_Y1KUdD5dzRXbu-68" edge="1">
          <mxGeometry relative="1" as="geometry" />
        </mxCell>
        <mxCell id="RDVR8g_Y1KUdD5dzRXbu-72" value="ใช่" style="text;html=1;align=center;verticalAlign=middle;resizable=0;points=[];autosize=1;strokeColor=none;fillColor=none;" parent="8MiHfRahlYDLlmmxbXPG-1" vertex="1">
          <mxGeometry x="190" y="710" width="40" height="30" as="geometry" />
        </mxCell>
        <mxCell id="RDVR8g_Y1KUdD5dzRXbu-73" value="ไม่ใช่" style="text;html=1;align=center;verticalAlign=middle;resizable=0;points=[];autosize=1;strokeColor=none;fillColor=none;" parent="8MiHfRahlYDLlmmxbXPG-1" vertex="1">
          <mxGeometry x="115" y="650" width="50" height="30" as="geometry" />
        </mxCell>
        <mxCell id="RDVR8g_Y1KUdD5dzRXbu-90" value="ตรวจสอบข้อมูล&lt;br&gt;ตรวจสอบความเป็นผู้ถือหุ้น โดยตรวจสอบจาก Table Shareholder&amp;nbsp;" style="whiteSpace=wrap;html=1;rounded=1;" parent="8MiHfRahlYDLlmmxbXPG-1" vertex="1">
          <mxGeometry x="320" y="560" width="195" height="85" as="geometry" />
        </mxCell>
        <mxCell id="RDVR8g_Y1KUdD5dzRXbu-95" value="เป็นผู้ถือหุ้น" style="rhombus;whiteSpace=wrap;html=1;rounded=1;" parent="8MiHfRahlYDLlmmxbXPG-1" vertex="1">
          <mxGeometry x="377.5" y="680" width="80" height="80" as="geometry" />
        </mxCell>
        <mxCell id="RDVR8g_Y1KUdD5dzRXbu-60" style="edgeStyle=orthogonalEdgeStyle;rounded=0;orthogonalLoop=1;jettySize=auto;html=1;entryX=0.5;entryY=0;entryDx=0;entryDy=0;" parent="8MiHfRahlYDLlmmxbXPG-1" source="RDVR8g_Y1KUdD5dzRXbu-55" target="RDVR8g_Y1KUdD5dzRXbu-90" edge="1">
          <mxGeometry relative="1" as="geometry">
            <mxPoint x="410" y="556" as="targetPoint" />
          </mxGeometry>
        </mxCell>
        <mxCell id="RDVR8g_Y1KUdD5dzRXbu-88" value="" style="edgeStyle=orthogonalEdgeStyle;rounded=0;orthogonalLoop=1;jettySize=auto;html=1;" parent="8MiHfRahlYDLlmmxbXPG-1" source="RDVR8g_Y1KUdD5dzRXbu-90" target="RDVR8g_Y1KUdD5dzRXbu-95" edge="1">
          <mxGeometry relative="1" as="geometry" />
        </mxCell>
        <mxCell id="RDVR8g_Y1KUdD5dzRXbu-99" value="ใช่" style="text;html=1;align=center;verticalAlign=middle;resizable=0;points=[];autosize=1;strokeColor=none;fillColor=none;" parent="8MiHfRahlYDLlmmxbXPG-1" vertex="1">
          <mxGeometry x="364" y="760" width="40" height="30" as="geometry" />
        </mxCell>
        <mxCell id="RDVR8g_Y1KUdD5dzRXbu-96" value="ไม่ใช่" style="text;html=1;align=center;verticalAlign=middle;resizable=0;points=[];autosize=1;strokeColor=none;fillColor=none;" parent="8MiHfRahlYDLlmmxbXPG-1" vertex="1">
          <mxGeometry x="457.5" y="685" width="50" height="30" as="geometry" />
        </mxCell>
        <mxCell id="RDVR8g_Y1KUdD5dzRXbu-98" value="ตรวจสอบข้อมูล&lt;br&gt;ตรวจสอบความซ้ำซ้อนของเอกสาร ว่าเคยมีการยื่นมาหรือไม่ โดยมีเงื่อนไขคือ เลขทะเบียนผู้ถือหุ้น เเละ เบอรโทร และ อีเมล์ ต้องไม่ซ้ำใน Table Request&amp;nbsp;" style="whiteSpace=wrap;html=1;rounded=1;" parent="8MiHfRahlYDLlmmxbXPG-1" vertex="1">
          <mxGeometry x="298.75" y="810" width="237.5" height="100" as="geometry" />
        </mxCell>
        <mxCell id="RDVR8g_Y1KUdD5dzRXbu-113" value="ส่ง Error Code 6 ไม่พบข้อมูลผู้ถือหุ้นนี้ในระบบ" style="whiteSpace=wrap;html=1;rounded=1;" parent="8MiHfRahlYDLlmmxbXPG-1" vertex="1">
          <mxGeometry x="570" y="690" width="120" height="60" as="geometry" />
        </mxCell>
        <mxCell id="RDVR8g_Y1KUdD5dzRXbu-89" style="edgeStyle=orthogonalEdgeStyle;rounded=0;orthogonalLoop=1;jettySize=auto;html=1;entryX=0;entryY=0.5;entryDx=0;entryDy=0;exitX=1;exitY=0.5;exitDx=0;exitDy=0;" parent="8MiHfRahlYDLlmmxbXPG-1" source="RDVR8g_Y1KUdD5dzRXbu-95" target="RDVR8g_Y1KUdD5dzRXbu-113" edge="1">
          <mxGeometry relative="1" as="geometry">
            <Array as="points">
              <mxPoint x="520" y="720" />
              <mxPoint x="520" y="720" />
            </Array>
          </mxGeometry>
        </mxCell>
        <mxCell id="RDVR8g_Y1KUdD5dzRXbu-111" value="ส่ง Error Code 5 มีการใช้งานผู้ถือหุ้นนี้ในระบบ" style="whiteSpace=wrap;html=1;rounded=1;" parent="8MiHfRahlYDLlmmxbXPG-1" vertex="1">
          <mxGeometry x="570" y="776" width="120" height="60" as="geometry" />
        </mxCell>
        <mxCell id="RDVR8g_Y1KUdD5dzRXbu-118" style="edgeStyle=orthogonalEdgeStyle;rounded=0;orthogonalLoop=1;jettySize=auto;html=1;endArrow=classic;endFill=1;entryX=1;entryY=1;entryDx=0;entryDy=0;" parent="8MiHfRahlYDLlmmxbXPG-1" target="RDVR8g_Y1KUdD5dzRXbu-59" edge="1">
          <mxGeometry relative="1" as="geometry">
            <mxPoint x="710" y="166" as="targetPoint" />
            <mxPoint x="730" y="656" as="sourcePoint" />
            <Array as="points">
              <mxPoint x="640" y="656" />
              <mxPoint x="640" y="140" />
              <mxPoint x="596" y="140" />
            </Array>
          </mxGeometry>
        </mxCell>
        <mxCell id="RDVR8g_Y1KUdD5dzRXbu-136" style="edgeStyle=orthogonalEdgeStyle;rounded=0;orthogonalLoop=1;jettySize=auto;html=1;endArrow=none;endFill=0;" parent="8MiHfRahlYDLlmmxbXPG-1" source="RDVR8g_Y1KUdD5dzRXbu-130" edge="1">
          <mxGeometry relative="1" as="geometry">
            <mxPoint x="730" y="796" as="targetPoint" />
          </mxGeometry>
        </mxCell>
        <mxCell id="RDVR8g_Y1KUdD5dzRXbu-130" value="ส่ง Error Code&amp;nbsp; 2&amp;nbsp;&lt;br&gt;ไม่สามารถบันทึกข้อมูลได้" style="rounded=1;whiteSpace=wrap;html=1;" parent="8MiHfRahlYDLlmmxbXPG-1" vertex="1">
          <mxGeometry x="570" y="865" width="120" height="61" as="geometry" />
        </mxCell>
        <mxCell id="RDVR8g_Y1KUdD5dzRXbu-135" value="ไม่ใช่" style="text;html=1;align=center;verticalAlign=middle;resizable=0;points=[];autosize=1;strokeColor=none;fillColor=none;" parent="8MiHfRahlYDLlmmxbXPG-1" vertex="1">
          <mxGeometry x="440" y="1499" width="50" height="30" as="geometry" />
        </mxCell>
        <mxCell id="RDVR8g_Y1KUdD5dzRXbu-138" value="ใช่" style="text;html=1;align=center;verticalAlign=middle;resizable=0;points=[];autosize=1;strokeColor=none;fillColor=none;" parent="8MiHfRahlYDLlmmxbXPG-1" vertex="1">
          <mxGeometry x="431.25" y="1539" width="40" height="30" as="geometry" />
        </mxCell>
        <mxCell id="RDVR8g_Y1KUdD5dzRXbu-140" value="ตรวจสอบข้อมูลการรับมอบฉันทะ จากที่ได้รับมา" style="whiteSpace=wrap;html=1;rounded=1;" parent="8MiHfRahlYDLlmmxbXPG-1" vertex="1">
          <mxGeometry x="351.25" y="1196" width="120" height="60" as="geometry" />
        </mxCell>
        <mxCell id="RDVR8g_Y1KUdD5dzRXbu-97" value="" style="edgeStyle=orthogonalEdgeStyle;rounded=0;orthogonalLoop=1;jettySize=auto;html=1;exitX=0.5;exitY=1;exitDx=0;exitDy=0;" parent="8MiHfRahlYDLlmmxbXPG-1" source="RDVR8g_Y1KUdD5dzRXbu-98" target="RDVR8g_Y1KUdD5dzRXbu-102" edge="1">
          <mxGeometry relative="1" as="geometry">
            <mxPoint x="411" y="956" as="sourcePoint" />
            <Array as="points">
              <mxPoint x="411" y="910" />
            </Array>
          </mxGeometry>
        </mxCell>
        <mxCell id="RDVR8g_Y1KUdD5dzRXbu-147" style="edgeStyle=orthogonalEdgeStyle;rounded=0;orthogonalLoop=1;jettySize=auto;html=1;entryX=0.5;entryY=0;entryDx=0;entryDy=0;endArrow=classic;endFill=1;" parent="8MiHfRahlYDLlmmxbXPG-1" source="RDVR8g_Y1KUdD5dzRXbu-142" target="RDVR8g_Y1KUdD5dzRXbu-124" edge="1">
          <mxGeometry relative="1" as="geometry" />
        </mxCell>
        <mxCell id="RDVR8g_Y1KUdD5dzRXbu-142" value="มีข้อมูล" style="rhombus;whiteSpace=wrap;html=1;rounded=1;" parent="8MiHfRahlYDLlmmxbXPG-1" vertex="1">
          <mxGeometry x="371.25" y="1276" width="80" height="80" as="geometry" />
        </mxCell>
        <mxCell id="RDVR8g_Y1KUdD5dzRXbu-116" value="" style="edgeStyle=orthogonalEdgeStyle;rounded=0;orthogonalLoop=1;jettySize=auto;html=1;endArrow=classic;endFill=1;" parent="8MiHfRahlYDLlmmxbXPG-1" source="RDVR8g_Y1KUdD5dzRXbu-95" target="RDVR8g_Y1KUdD5dzRXbu-98" edge="1">
          <mxGeometry relative="1" as="geometry" />
        </mxCell>
        <mxCell id="RDVR8g_Y1KUdD5dzRXbu-146" style="edgeStyle=orthogonalEdgeStyle;rounded=0;orthogonalLoop=1;jettySize=auto;html=1;entryX=0;entryY=0.5;entryDx=0;entryDy=0;endArrow=classic;endFill=1;exitX=0.5;exitY=1;exitDx=0;exitDy=0;" parent="8MiHfRahlYDLlmmxbXPG-1" source="RDVR8g_Y1KUdD5dzRXbu-144" target="RDVR8g_Y1KUdD5dzRXbu-124" edge="1">
          <mxGeometry relative="1" as="geometry" />
        </mxCell>
        <mxCell id="RDVR8g_Y1KUdD5dzRXbu-144" value="เพิ่มข้อมูลการรับมอบฉันทะ" style="whiteSpace=wrap;html=1;rounded=1;" parent="8MiHfRahlYDLlmmxbXPG-1" vertex="1">
          <mxGeometry x="191.25" y="1286" width="120" height="60" as="geometry" />
        </mxCell>
        <mxCell id="RDVR8g_Y1KUdD5dzRXbu-148" value="ใช่" style="text;html=1;align=center;verticalAlign=middle;resizable=0;points=[];autosize=1;strokeColor=none;fillColor=none;" parent="8MiHfRahlYDLlmmxbXPG-1" vertex="1">
          <mxGeometry x="330" y="1271" width="40" height="30" as="geometry" />
        </mxCell>
        <mxCell id="RDVR8g_Y1KUdD5dzRXbu-149" value="ไม่ใช่" style="text;html=1;align=center;verticalAlign=middle;resizable=0;points=[];autosize=1;strokeColor=none;fillColor=none;" parent="8MiHfRahlYDLlmmxbXPG-1" vertex="1">
          <mxGeometry x="405" y="1371" width="50" height="30" as="geometry" />
        </mxCell>
        <mxCell id="RDVR8g_Y1KUdD5dzRXbu-154" style="edgeStyle=orthogonalEdgeStyle;rounded=0;orthogonalLoop=1;jettySize=auto;html=1;endArrow=none;endFill=0;" parent="8MiHfRahlYDLlmmxbXPG-1" source="RDVR8g_Y1KUdD5dzRXbu-151" edge="1">
          <mxGeometry relative="1" as="geometry">
            <mxPoint x="730" y="1576" as="targetPoint" />
          </mxGeometry>
        </mxCell>
        <mxCell id="RDVR8g_Y1KUdD5dzRXbu-151" value="ส่งกลับข้อมูลผู้ถือหุ้น" style="rounded=1;whiteSpace=wrap;html=1;" parent="8MiHfRahlYDLlmmxbXPG-1" vertex="1">
          <mxGeometry x="507.5" y="1556" width="140" height="40" as="geometry" />
        </mxCell>
        <mxCell id="RDVR8g_Y1KUdD5dzRXbu-101" value="" style="edgeStyle=orthogonalEdgeStyle;rounded=0;orthogonalLoop=1;jettySize=auto;html=1;entryX=0;entryY=0.5;entryDx=0;entryDy=0;" parent="8MiHfRahlYDLlmmxbXPG-1" source="RDVR8g_Y1KUdD5dzRXbu-102" target="RDVR8g_Y1KUdD5dzRXbu-111" edge="1">
          <mxGeometry relative="1" as="geometry">
            <Array as="points">
              <mxPoint x="560" y="1016" />
              <mxPoint x="560" y="806" />
            </Array>
          </mxGeometry>
        </mxCell>
        <mxCell id="RDVR8g_Y1KUdD5dzRXbu-134" style="edgeStyle=orthogonalEdgeStyle;rounded=0;orthogonalLoop=1;jettySize=auto;html=1;entryX=0.5;entryY=1;entryDx=0;entryDy=0;endArrow=classic;endFill=1;" parent="8MiHfRahlYDLlmmxbXPG-1" source="RDVR8g_Y1KUdD5dzRXbu-126" target="RDVR8g_Y1KUdD5dzRXbu-130" edge="1">
          <mxGeometry relative="1" as="geometry" />
        </mxCell>
        <mxCell id="RDVR8g_Y1KUdD5dzRXbu-141" value="" style="edgeStyle=orthogonalEdgeStyle;rounded=0;orthogonalLoop=1;jettySize=auto;html=1;endArrow=classic;endFill=1;" parent="8MiHfRahlYDLlmmxbXPG-1" source="RDVR8g_Y1KUdD5dzRXbu-123" target="RDVR8g_Y1KUdD5dzRXbu-140" edge="1">
          <mxGeometry relative="1" as="geometry" />
        </mxCell>
        <mxCell id="RDVR8g_Y1KUdD5dzRXbu-143" value="" style="edgeStyle=orthogonalEdgeStyle;rounded=0;orthogonalLoop=1;jettySize=auto;html=1;endArrow=classic;endFill=1;" parent="8MiHfRahlYDLlmmxbXPG-1" source="RDVR8g_Y1KUdD5dzRXbu-140" target="RDVR8g_Y1KUdD5dzRXbu-142" edge="1">
          <mxGeometry relative="1" as="geometry" />
        </mxCell>
        <mxCell id="RDVR8g_Y1KUdD5dzRXbu-145" value="" style="edgeStyle=orthogonalEdgeStyle;rounded=0;orthogonalLoop=1;jettySize=auto;html=1;endArrow=classic;endFill=1;" parent="8MiHfRahlYDLlmmxbXPG-1" source="RDVR8g_Y1KUdD5dzRXbu-142" target="RDVR8g_Y1KUdD5dzRXbu-144" edge="1">
          <mxGeometry relative="1" as="geometry" />
        </mxCell>
        <mxCell id="RDVR8g_Y1KUdD5dzRXbu-152" style="edgeStyle=orthogonalEdgeStyle;rounded=0;orthogonalLoop=1;jettySize=auto;html=1;entryX=0;entryY=0.5;entryDx=0;entryDy=0;endArrow=classic;endFill=1;" parent="8MiHfRahlYDLlmmxbXPG-1" source="RDVR8g_Y1KUdD5dzRXbu-126" target="RDVR8g_Y1KUdD5dzRXbu-151" edge="1">
          <mxGeometry relative="1" as="geometry">
            <Array as="points">
              <mxPoint x="411" y="1576" />
            </Array>
          </mxGeometry>
        </mxCell>
        <mxCell id="8MiHfRahlYDLlmmxbXPG-2" value="" style="edgeStyle=orthogonalEdgeStyle;rounded=0;orthogonalLoop=1;jettySize=auto;html=1;" edge="1" parent="8MiHfRahlYDLlmmxbXPG-1" source="RDVR8g_Y1KUdD5dzRXbu-1" target="RDVR8g_Y1KUdD5dzRXbu-14">
          <mxGeometry relative="1" as="geometry" />
        </mxCell>
        <mxCell id="RDVR8g_Y1KUdD5dzRXbu-1" value="เริ่มต้น" style="ellipse;whiteSpace=wrap;html=1;" parent="8MiHfRahlYDLlmmxbXPG-1" vertex="1">
          <mxGeometry x="160" y="11" width="60" height="40" as="geometry" />
        </mxCell>
      </root>
    </mxGraphModel>
  </diagram>
</mxfile>
